<?xml version="1.0" standalone="no"?>
<!DOCTYPE svg PUBLIC "-//W3C//DTD SVG 20010904//EN"
 "http://www.w3.org/TR/2001/REC-SVG-20010904/DTD/svg10.dtd">
<svg version="1.0" xmlns="http://www.w3.org/2000/svg"
 width="225.000000pt" height="225.000000pt" viewBox="0 0 225.000000 225.000000"
 preserveAspectRatio="xMidYMid meet">

<g transform="translate(0.000000,225.000000) scale(0.100000,-0.100000)"
fill="#fff" stroke="none">
<path d="M1008 2240 c-249 -40 -471 -215 -569 -449 -110 -264 -58 -571 132
-784 l46 -51 -185 -363 c-223 -441 -222 -422 -13 -358 73 23 118 32 124 26 5
-5 31 -65 56 -133 38 -101 50 -123 66 -123 16 0 55 70 210 377 l190 378 60 0
60 0 190 -378 c155 -307 194 -377 210 -377 16 0 28 22 66 123 25 68 51 128 56
133 6 6 51 -3 124 -26 128 -39 142 -41 159 -21 9 12 -24 84 -173 378 l-185
363 54 65 c118 140 178 304 178 485 0 208 -68 369 -219 521 -76 77 -105 98
-185 137 -52 26 -122 54 -155 62 -75 20 -222 27 -297 15z m250 -76 c240 -48
432 -224 514 -469 33 -100 33 -278 0 -385 -36 -114 -86 -195 -176 -286 -68
-68 -97 -89 -176 -127 -119 -56 -180 -71 -300 -70 -112 0 -198 20 -295 68
-238 117 -378 345 -376 615 0 116 18 189 72 297 136 271 438 418 737 357z
m-560 -1279 l22 -16 -138 -274 -137 -275 -42 -14 c-24 -8 -43 -12 -43 -10 0
10 305 604 310 604 3 0 15 -7 28 -15z m769 -389 l142 -284 -16 -42 -17 -42
-157 313 c-87 173 -158 317 -158 321 -1 6 19 12 54 17 6 0 74 -127 152 -283z"/>
<path d="M1015 1910 c-48 -77 -95 -144 -104 -149 -9 -5 -77 -23 -151 -40 -161
-38 -180 -45 -180 -69 0 -10 49 -76 109 -147 110 -129 110 -129 105 -174 -26
-265 -25 -311 12 -311 7 0 79 27 160 60 81 33 152 60 158 60 6 0 76 -27 155
-60 153 -64 178 -70 188 -44 3 9 0 90 -6 180 l-13 163 111 131 c61 72 111 135
111 140 0 20 -51 39 -185 70 -77 18 -146 36 -153 40 -8 4 -53 69 -101 146 -62
99 -93 140 -108 142 -18 3 -36 -21 -108 -138z m185 -80 c40 -66 80 -124 89
-129 9 -4 75 -23 148 -41 l132 -32 -95 -112 -95 -111 6 -95 c3 -52 8 -121 12
-153 l6 -57 -133 55 c-73 30 -139 55 -147 55 -8 0 -69 -23 -135 -50 -66 -28
-125 -50 -131 -50 -9 0 -3 185 9 256 5 27 -5 43 -90 144 -53 63 -92 117 -88
120 4 3 68 21 142 38 l135 33 44 72 c73 117 111 177 115 177 2 0 36 -54 76
-120z"/>
</g>
</svg>
