<?xml version="1.0" standalone="no"?>
<!DOCTYPE svg PUBLIC "-//W3C//DTD SVG 20010904//EN"
 "http://www.w3.org/TR/2001/REC-SVG-20010904/DTD/svg10.dtd">
<svg version="1.0" xmlns="http://www.w3.org/2000/svg"
 width="225.000000pt" height="225.000000pt" viewBox="0 0 225.000000 225.000000"
 preserveAspectRatio="xMidYMid meet">

<g transform="translate(0.000000,225.000000) scale(0.100000,-0.100000)"
fill="#fff" stroke="none">
<path d="M1034 2219 c-55 -28 -63 -30 -129 -24 -88 9 -129 -7 -176 -65 -36
-45 -75 -70 -109 -70 -57 0 -131 -63 -146 -126 -13 -54 -33 -81 -79 -108 -61
-36 -85 -85 -85 -172 0 -59 -4 -73 -37 -126 -45 -73 -49 -129 -14 -197 23 -45
23 -49 5 -148 -11 -58 4 -99 57 -157 45 -49 51 -62 59 -116 10 -73 42 -119 97
-144 73 -33 83 -39 83 -53 0 -7 -40 -110 -90 -229 -49 -119 -90 -228 -90 -243
0 -34 37 -71 71 -71 14 0 69 14 123 31 54 17 103 28 110 26 6 -3 35 -50 65
-106 39 -75 60 -105 79 -112 30 -12 64 -5 85 15 8 8 58 121 112 250 54 130 99
236 100 236 1 0 46 -106 100 -236 54 -129 104 -242 112 -250 21 -20 55 -27 84
-16 18 7 41 40 79 112 30 56 60 104 67 107 6 2 56 -9 111 -26 54 -17 110 -31
124 -31 31 0 68 39 68 72 0 14 -40 123 -90 242 -50 119 -90 222 -90 229 0 14
10 20 83 53 55 25 87 71 97 144 8 54 14 67 59 116 53 58 68 99 57 157 -18 99
-18 103 5 148 35 68 31 124 -14 197 -33 53 -37 67 -37 126 0 87 -24 136 -85
172 -46 27 -66 54 -79 108 -15 63 -89 126 -146 126 -34 0 -73 25 -109 70 -47
58 -88 74 -176 65 -66 -6 -74 -4 -129 24 -32 17 -73 31 -91 31 -18 0 -59 -14
-91 -31z m165 -66 c42 -26 53 -28 140 -26 l93 2 57 -58 c51 -54 100 -81 148
-81 27 0 71 -51 82 -97 12 -46 37 -76 123 -145 32 -26 33 -28 31 -93 -3 -70
13 -124 48 -161 31 -34 35 -84 9 -135 -24 -46 -27 -87 -15 -184 l7 -60 -51
-53 c-34 -36 -52 -63 -56 -87 -3 -19 -7 -50 -10 -69 -6 -39 -44 -81 -83 -91
-44 -11 -91 -53 -117 -105 -29 -58 -48 -70 -110 -70 -55 0 -106 -20 -151 -60
-46 -40 -78 -47 -135 -27 -26 10 -63 17 -84 17 -21 0 -58 -7 -84 -17 -57 -20
-89 -13 -135 27 -45 40 -96 60 -151 60 -62 0 -81 12 -110 70 -26 52 -73 94
-117 105 -39 10 -77 52 -83 91 -3 19 -7 50 -10 69 -4 24 -22 51 -56 87 l-51
53 7 60 c12 97 9 138 -15 184 -26 51 -22 101 9 135 35 37 51 91 48 161 -2 65
-1 67 31 93 86 69 111 99 123 145 11 46 55 97 82 97 48 0 97 27 148 81 l57 58
93 -2 c87 -2 97 0 139 25 57 35 91 35 149 1z m-516 -1572 c16 -6 49 -11 73
-11 51 0 74 -10 121 -51 37 -32 104 -53 139 -45 22 6 19 -2 -38 -141 -33 -82
-71 -173 -84 -203 -12 -30 -28 -55 -34 -55 -7 0 -36 45 -66 100 -72 134 -79
137 -210 97 -126 -39 -140 -41 -136 -22 2 8 37 99 80 202 l76 187 26 -24 c14
-13 38 -29 53 -34z m1040 -131 c42 -102 78 -192 79 -200 4 -19 -10 -17 -135
22 -132 40 -138 38 -209 -95 -31 -56 -61 -102 -67 -102 -10 0 -101 204 -172
383 -8 20 -6 22 15 16 35 -8 102 13 139 45 47 41 70 51 122 51 53 0 102 18
129 49 11 11 20 20 21 19 2 -2 37 -86 78 -188z"/>
<path d="M980 2004 c-238 -51 -451 -266 -500 -507 -14 -69 -9 -87 24 -87 20 0
27 6 31 28 45 215 156 368 330 452 94 45 159 60 260 60 96 0 164 -15 250 -54
175 -81 295 -242 340 -458 4 -22 11 -28 31 -28 33 0 38 18 24 87 -50 243 -263
457 -505 508 -86 18 -199 18 -285 -1z"/>
<path d="M1103 1829 c-27 -10 -40 -35 -87 -170 l-38 -107 -141 -7 c-156 -8
-177 -16 -177 -67 0 -33 11 -45 134 -138 47 -36 85 -71 85 -78 1 -7 -15 -68
-34 -135 -19 -67 -35 -127 -35 -134 0 -21 38 -53 63 -53 12 0 73 34 134 75 62
41 115 75 118 75 3 0 56 -34 118 -75 61 -41 122 -75 134 -75 25 0 63 32 63 53
0 7 -16 67 -35 134 -19 67 -35 128 -35 135 1 7 39 42 85 77 120 90 135 106
135 139 0 52 -21 60 -177 68 l-142 7 -41 117 c-56 158 -73 179 -127 159z m93
-260 c18 -47 32 -69 50 -78 14 -6 76 -11 145 -11 67 0 119 -4 117 -9 -1 -4
-49 -45 -105 -90 -83 -65 -103 -86 -103 -107 0 -22 47 -199 67 -250 3 -9 -45
18 -108 60 -63 42 -123 76 -134 76 -11 0 -71 -34 -134 -76 -63 -42 -111 -69
-108 -60 19 50 67 228 67 249 0 27 -21 48 -138 137 -39 30 -72 58 -72 62 0 5
54 8 120 8 68 0 130 5 144 11 25 12 41 47 102 217 l18 53 24 -63 c12 -35 34
-93 48 -129z"/>
<path d="M480 1305 c-22 -27 11 -154 71 -265 121 -228 405 -370 661 -331 222
34 404 164 499 356 36 74 69 177 69 216 0 9 -7 22 -16 30 -26 22 -46 -2 -61
-72 -39 -197 -193 -370 -393 -440 -94 -33 -276 -33 -370 0 -198 70 -353 242
-393 436 -7 33 -16 66 -20 73 -11 16 -32 15 -47 -3z"/>
</g>
</svg>
